HIERARCHY
ROOT Hips
{
	OFFSET 0.000000 8.830580 0.000000
	CHANNELS 6 Xposition Yposition Zposition Zrotation Yrotation Xrotation 
	JOINT Spine
	{
		OFFSET 0.000000 0.010000 0.000000
		CHANNELS 3 Zrotation Yrotation Xrotation
		JOINT Spine1
		{
			OFFSET 0.000000 2.459130 0.000000
			CHANNELS 3 Zrotation Yrotation Xrotation
			JOINT Neck
			{
				OFFSET 0.000000 2.484630 0.000000
				CHANNELS 3 Zrotation Yrotation Xrotation
				JOINT Head_virtual
				{
					OFFSET 0.000000 0.000000 0.000000
					CHANNELS 3 Zrotation Yrotation Xrotation
					JOINT Head
					{
						OFFSET 0.000000 0.927525 0.000000
						CHANNELS 3 Zrotation Yrotation Xrotation
						End Site
						{
							OFFSET 0.000000 0.000000 0.000000
						}
					}
				}
				JOINT LeftUpArm_virtual
				{
					OFFSET 0.000000 0.000000 0.000000
					CHANNELS 3 Zrotation Yrotation Xrotation
					JOINT LeftUpArm
					{
						OFFSET 1.248820 0.000000 0.000000
						CHANNELS 3 Zrotation Yrotation Xrotation
						JOINT LeftForeArm
						{
							OFFSET 2.597580 0.000000 0.000000
							CHANNELS 3 Zrotation Yrotation Xrotation
							JOINT LeftHand
							{
								OFFSET 2.455420 0.000000 0.000000
								CHANNELS 3 Zrotation Yrotation Xrotation
								End Site
								{
									OFFSET 0.000000 0.000000 0.000000
								}
							}
						}
					}
				}
				JOINT RightUpArm_virtual
				{
					OFFSET -0.000000 -0.000000 -0.000000
					CHANNELS 3 Zrotation Yrotation Xrotation
					JOINT RightUpArm
					{
						OFFSET -1.248820 -0.000000 -0.000000
						CHANNELS 3 Zrotation Yrotation Xrotation
						JOINT RightForeArm
						{
							OFFSET -2.597580 -0.000000 -0.000000
							CHANNELS 3 Zrotation Yrotation Xrotation
							JOINT RightHand
							{
								OFFSET -2.455420 -0.000000 -0.000000
								CHANNELS 3 Zrotation Yrotation Xrotation
								End Site
								{
									OFFSET 0.000000 0.000000 0.000000
								}
							}
						}
					}
				}
			}
		}
	}
	JOINT LeftUpLeg
	{
		OFFSET 1.271939 0.000000 0.000000
		CHANNELS 3 Zrotation Yrotation Xrotation
		JOINT LeftLowLeg
		{
			OFFSET 0.000000 -4.342910 0.000000
			CHANNELS 3 Zrotation Yrotation Xrotation
			JOINT LeftFoot
			{
				OFFSET 0.000000 -4.487670 0.000000
				CHANNELS 3 Zrotation Yrotation Xrotation
				JOINT LeftToeBase
				{
					OFFSET 0.000000 0.000000 1.515070
					CHANNELS 3 Zrotation Yrotation Xrotation
					End Site
					{
						OFFSET 0.000000 0.000000 0.000000
					}
				}
			}
		}
	}
	JOINT RightUpLeg
	{
		OFFSET -1.271939 0.000000 0.000000
		CHANNELS 3 Zrotation Yrotation Xrotation
		JOINT RightLowLeg
		{
			OFFSET 0.000000 -4.342910 0.000000
			CHANNELS 3 Zrotation Yrotation Xrotation
			JOINT RightFoot
			{
				OFFSET 0.000000 -4.487670 0.000000
				CHANNELS 3 Zrotation Yrotation Xrotation
				JOINT RightToeBase
				{
					OFFSET 0.000000 0.000000 1.515070
					CHANNELS 3 Zrotation Yrotation Xrotation
					End Site
					{
						OFFSET 0.000000 0.000000 0.000000
					}
				}
			}
		}
	}
}
MOTION
Frames: 14
Frame Time: 0.041667
-18.653756 6.601044 38.564423 -170.359038 23.633668 144.318311 -10.400703 2.898556 9.065906 22.928672 3.741918 30.337558 0.000000 0.000000 0.000000 -20.252377 -33.014107 34.403418 23.505537 40.860183 -89.338199 -21.652000 -5.875530 16.580200 -52.631100 18.591299 37.938801 0.000000 -46.812901 0.000000 91.967400 23.655600 -6.311260 23.597401 9.313980 23.928986 16.092501 34.658001 19.599100 -180.000000 75.087997 -180.000000 -25.141001 -0.699238 18.658800 -1.139819 4.051450 -37.299596 0.000000 0.000000 45.103401 -22.854472 8.836303 23.336925 0.000000 0.000000 -49.421101 5.618022 1.496905 -19.821548 0.000000 0.000000 32.231201 22.148098 1.692132 34.879214 0.000000 0.000000 -45.379601 
-18.669244 6.597955 38.550647 -170.099318 22.584880 143.968673 -10.642958 2.347276 9.368341 23.461830 3.064101 30.681689 0.000000 0.000000 0.000000 -19.618026 -31.093068 33.411425 23.284251 41.610798 -88.372978 -22.793800 -5.172030 16.204800 -50.239601 19.074200 40.987900 0.000000 -48.941299 0.000000 90.952003 25.845900 -6.667780 23.069799 8.343870 22.631989 16.257601 29.719299 17.445900 180.000000 71.605003 180.000000 -30.735901 1.786860 19.971901 -0.011515 2.659440 -37.239794 0.000000 0.000000 46.861900 -21.321032 9.090153 23.882867 0.000000 0.000000 -49.924400 5.071963 2.264126 -20.117583 0.000000 0.000000 33.924999 23.641224 3.871666 34.498316 0.000000 0.000000 -45.409500 
-18.684693 6.596026 38.538348 -169.989687 21.358025 143.627096 -11.152890 1.821882 9.640270 24.143322 2.339608 31.065068 0.000000 0.000000 0.000000 -19.065806 -29.199226 32.336522 22.973893 42.325690 -87.574964 -24.026699 -4.357060 15.809400 -47.676998 19.226400 44.287102 0.000000 -51.019402 0.000000 90.251999 28.424400 -6.875460 22.558701 7.083530 21.243011 16.492599 24.816200 15.125700 -180.000000 68.938004 -180.000000 -34.468201 3.467720 16.823000 0.907417 1.076679 -37.015928 0.000000 0.000000 48.248001 -20.401469 9.346356 24.503761 0.000000 0.000000 -50.743099 4.299942 3.408636 -20.404601 0.000000 0.000000 35.592098 25.720978 6.278854 34.440358 0.000000 0.000000 -46.039200 
-18.696198 6.593863 38.522009 -169.824720 20.275790 143.432382 -11.552205 1.350345 9.716445 24.875301 1.713287 31.384824 0.000000 0.000000 0.000000 -18.590399 -27.408742 31.372799 22.810583 42.858688 -86.549602 -25.109800 -3.683510 15.571700 -45.334599 19.276400 47.292999 0.000000 -52.954498 0.000000 88.677597 30.518400 -8.002990 22.007601 5.708130 19.864990 17.049700 19.886801 13.039200 180.000000 67.278999 -180.000000 -38.591900 4.294310 13.972600 1.831713 -0.086270 -37.018649 0.000000 0.000000 49.853901 -20.075831 9.325517 25.057556 0.000000 0.000000 -51.505699 3.721416 4.678915 -20.741792 0.000000 0.000000 37.175999 27.482730 8.824046 34.648864 0.000000 0.000000 -47.080799 
-18.706337 6.591695 38.504683 -169.723967 19.120886 143.289217 -11.991778 0.909427 9.692533 25.554284 1.092444 31.732239 0.000000 0.000000 0.000000 -18.100694 -25.810380 30.388937 22.660255 43.387231 -85.609730 -26.126699 -3.074220 15.359600 -43.021500 19.199301 50.188202 0.000000 -54.841702 0.000000 87.249298 32.404499 -8.850170 21.401501 4.043560 18.760010 17.884300 15.284100 10.533800 180.000000 66.809998 180.000000 -41.082802 4.529160 10.771100 2.619859 -1.152353 -36.998832 0.000000 0.000000 51.325298 -20.249887 9.132607 25.464178 0.000000 0.000000 -52.028500 3.051385 6.239875 -21.088143 0.000000 0.000000 38.697399 29.266621 11.245299 34.699000 0.000000 0.000000 -47.844898 
-18.714271 6.588860 38.485700 -169.702937 17.942817 143.139920 -12.442699 0.547045 9.618003 26.179096 0.539346 32.090390 0.000000 0.000000 0.000000 -17.649274 -24.368436 29.379306 22.613206 43.817091 -84.711352 -27.034500 -2.524060 15.341700 -40.843399 18.883499 52.766800 0.000000 -56.676899 0.000000 85.575897 34.338699 -10.172800 20.664400 2.604380 16.475006 19.602900 10.153900 9.449630 -180.000000 66.875000 -180.000000 -44.044701 2.579140 8.350650 3.251185 -1.965850 -36.932044 0.000000 0.000000 52.701599 -20.408449 8.810903 25.786106 0.000000 0.000000 -52.453701 2.380372 7.776387 -21.476964 0.000000 0.000000 40.233398 30.817103 13.479804 34.418232 0.000000 0.000000 -48.856602 
-18.721042 6.586392 38.464630 -169.751881 16.715878 143.051226 -12.798570 0.215737 9.429667 26.466946 0.028098 32.420003 0.000000 0.000000 0.000000 -17.103315 -23.498824 28.906006 22.092155 44.574820 -84.209221 -27.830799 -2.056490 15.353800 -38.733700 18.622700 54.978500 0.000000 -58.374298 0.000000 83.356598 35.612900 -11.737100 20.454300 0.409799 16.123993 20.562000 6.509770 6.843150 180.000000 67.960999 -180.000000 -46.282501 -0.309680 6.156200 3.704535 -2.548727 -36.845660 0.000000 0.000000 53.922600 -20.407110 8.459389 26.065519 0.000000 0.000000 -52.937698 1.634006 9.457368 -21.981499 0.000000 0.000000 41.830200 32.271263 15.693639 33.806804 0.000000 0.000000 -48.935398 
-18.726804 6.585365 38.448171 -169.686231 15.685964 142.998147 -12.940683 -0.029846 9.291941 26.686468 -0.333433 32.709123 0.000000 0.000000 0.000000 -16.540472 -22.919279 28.621105 21.123075 45.513595 -84.132442 -28.618200 -1.639300 15.487700 -36.759499 18.190800 56.703602 0.000000 -59.877701 0.000000 81.708199 37.421398 -13.917400 20.183901 -1.542180 15.377014 22.088600 2.699880 5.112810 -180.000000 69.737000 -180.000000 -48.683300 -3.707360 4.760750 4.250091 -2.729668 -36.684615 0.000000 0.000000 54.971401 -19.960147 8.168057 26.405639 0.000000 0.000000 -53.304199 1.045983 12.111761 -22.191504 0.000000 0.000000 42.614799 35.264400 17.086826 34.166058 0.000000 0.000000 -50.497799 
-18.734383 6.578858 38.423109 -169.829281 14.364246 142.853834 -12.960425 -0.262121 9.172477 26.232016 -0.671363 32.922747 0.000000 0.000000 0.000000 -15.731672 -22.665266 28.373770 20.130574 46.567007 -83.942798 -29.043301 -1.297880 15.599000 -35.040501 17.895000 58.073399 0.000000 -61.174599 0.000000 79.647400 38.746498 -15.830900 20.184000 -3.164160 14.114990 24.036699 -1.438710 4.022740 180.000000 71.736000 180.000000 -51.344501 -8.509680 5.019920 4.322640 -2.832771 -36.438775 0.000000 0.000000 55.873600 -19.576542 8.009882 26.669316 0.000000 0.000000 -53.456100 0.349947 12.844109 -22.775922 0.000000 0.000000 44.342300 35.420960 18.910182 34.083834 0.000000 0.000000 -51.187698 
-18.740421 6.575465 38.399459 -169.814745 13.121328 142.919063 -12.670435 -0.532598 8.914038 25.469461 -1.007155 33.177586 0.000000 0.000000 0.000000 -14.953657 -22.582006 28.305257 19.035242 47.739088 -84.150510 -29.403500 -0.919351 15.485300 -33.349800 17.734301 59.257000 0.000000 -62.186798 0.000000 77.277397 39.120399 -17.891300 20.462099 -4.554270 13.135010 25.964100 -5.383170 3.278450 -180.000000 74.374001 180.000000 -55.144402 -11.513200 9.364800 4.494938 -2.722079 -36.264313 0.000000 0.000000 56.550301 -19.550852 7.983343 26.926585 0.000000 0.000000 -53.951900 -0.253004 14.545064 -23.201729 0.000000 0.000000 45.420799 35.800916 20.626645 33.896684 0.000000 0.000000 -51.395901 
-18.747149 6.570177 38.374991 -169.881734 11.890557 142.957486 -12.339800 -0.723768 8.618893 24.670743 -1.241922 33.386471 0.000000 0.000000 0.000000 -14.233601 -22.653424 28.330593 18.136053 48.713883 -84.225320 -29.499399 -0.836809 15.379400 -32.132099 17.801600 59.922001 0.000000 -62.928902 0.000000 74.494698 39.296600 -20.827499 20.719801 -5.795360 12.598999 28.422701 -9.360220 1.505980 180.000000 76.959000 180.000000 -54.605499 -14.283700 11.910000 4.543310 -2.434446 -35.997759 0.000000 0.000000 57.036999 -19.469900 7.986070 27.052306 0.000000 0.000000 -53.918900 -0.852225 15.855482 -23.683105 0.000000 0.000000 46.598000 36.583533 22.135433 34.815336 0.000000 0.000000 -51.943600 
-18.752321 6.565010 38.350193 -169.892833 10.717594 143.078474 -11.868320 -0.943649 8.481999 23.776476 -1.415690 33.366817 0.000000 0.000000 0.000000 -13.760165 -22.667286 28.457091 17.316637 49.605285 -84.734574 -29.506901 -0.477829 15.071800 -31.059099 17.781401 60.311100 0.000000 -63.180801 0.000000 70.776199 37.843899 -24.753500 21.191601 -6.889650 12.420990 30.886299 -12.986300 -0.058431 180.000000 79.748001 180.000000 -55.661999 -16.294600 17.832600 4.625325 -1.990368 -35.743576 0.000000 0.000000 57.362701 -19.672867 8.040012 27.055678 0.000000 0.000000 -53.980000 -1.322052 17.089980 -24.164378 0.000000 0.000000 47.658600 36.346148 23.562986 35.142317 0.000000 0.000000 -52.324699 
-18.754648 6.566150 38.331685 -169.717672 9.772384 143.195876 -11.324707 -1.117762 8.212354 23.225605 -1.563033 33.550635 0.000000 0.000000 0.000000 -13.367898 -22.990576 28.789083 16.334818 50.312138 -85.290237 -29.430000 -0.585860 14.516900 -30.470200 18.178600 60.227299 0.000000 -63.166302 0.000000 67.575897 35.852001 -28.024200 21.558001 -7.680630 12.243011 33.677299 -16.511801 -1.837680 -180.000000 82.682602 -180.000000 -54.149700 -16.522900 23.565901 4.974765 -1.299107 -35.362051 0.000000 0.000000 57.427399 -19.064175 7.892514 27.013461 0.000000 0.000000 -53.776901 -1.569873 19.964969 -24.235976 0.000000 0.000000 48.171600 36.027917 23.243098 33.286912 0.000000 0.000000 -49.947601 
-18.764203 6.557724 38.301086 -169.921088 8.468918 143.352202 -10.761736 -1.334194 7.917650 21.916115 -1.741270 33.497607 0.000000 0.000000 0.000000 -12.939427 -23.153510 28.955218 15.681971 50.959609 -85.555407 -29.007299 -0.404949 13.947200 -30.109200 18.497400 59.882301 0.000000 -62.998699 0.000000 65.235100 33.086102 -31.741501 22.118401 -8.601800 12.264008 36.503201 -19.523899 -3.260910 -180.000000 85.455498 -180.000000 -52.493000 -16.693600 27.786800 4.733253 -0.780182 -35.030422 0.000000 0.000000 57.335400 -18.089386 7.719580 26.521137 0.000000 0.000000 -53.762901 -2.180349 19.861865 -25.076707 0.000000 0.000000 50.143101 31.924275 21.446286 30.121303 0.000000 0.000000 -48.938202 
